<?xml version="1.0" standalone="no"?>
<!DOCTYPE svg PUBLIC "-//W3C//DTD SVG 20010904//EN"
 "http://www.w3.org/TR/2001/REC-SVG-20010904/DTD/svg10.dtd">
<svg version="1.0" xmlns="http://www.w3.org/2000/svg"
 width="1200.000000pt" height="1200.000000pt" viewBox="0 0 1200.000000 1200.000000"
 preserveAspectRatio="xMidYMid meet">

<g transform="translate(0.000000,1200.000000) scale(0.100000,-0.100000)"
fill="#000000" stroke="none">
<path d="M2750 7169 c0 -26 -10 -68 -21 -94 -21 -47 -21 -49 -4 -127 9 -44 15
-82 12 -84 -15 -15 -87 117 -87 159 0 47 -22 -3 -27 -62 -8 -81 9 -135 74
-238 29 -47 61 -107 70 -133 16 -44 16 -52 1 -101 -8 -30 -19 -63 -23 -74 -5
-12 5 -6 23 15 l31 35 36 -40 35 -40 -26 59 c-39 86 -31 134 45 258 89 145
106 210 80 303 l-12 40 -18 -54 c-18 -51 -66 -127 -75 -118 -2 2 2 36 10 74
16 73 14 92 -19 167 -10 24 -14 50 -10 70 l6 31 -30 -35 c-17 -19 -31 -30 -31
-25 0 6 -9 21 -20 35 l-20 25 0 -46z m60 -326 c0 -21 -5 -45 -10 -53 -7 -11
-10 0 -10 38 0 28 5 52 10 52 6 0 10 -17 10 -37z"/>
<path d="M6385 7141 c-132 -34 -197 -123 -217 -296 l-11 -95 -33 0 c-19 0 -34
-4 -34 -10 0 -5 16 -10 35 -10 l35 0 0 -295 0 -295 -35 0 c-24 0 -35 -5 -35
-15 0 -13 33 -15 240 -15 207 0 240 2 240 15 0 12 -16 15 -80 15 l-80 0 0 295
0 295 90 0 c53 0 90 4 90 10 0 6 -37 10 -90 10 l-90 0 0 145 c0 157 10 204 50
225 12 6 33 9 46 6 50 -13 54 -82 5 -88 -23 -3 -26 -8 -29 -45 -4 -54 11 -81
55 -100 47 -19 98 -10 129 24 19 20 24 37 24 75 0 102 -60 150 -195 154 -44 2
-93 0 -110 -5z"/>
<path d="M7300 7111 c0 -6 17 -11 38 -13 l37 -3 3 -477 2 -478 -35 0 c-19 0
-35 -4 -35 -10 0 -6 72 -10 195 -10 123 0 195 4 195 10 0 6 -15 10 -33 10
l-34 0 -6 212 c-4 116 -7 336 -7 490 l0 278 -160 0 c-93 0 -160 -4 -160 -9z"/>
<path d="M8080 7110 c0 -5 18 -10 40 -10 l40 0 0 -197 0 -196 -23 21 c-48 46
-185 50 -266 8 -44 -23 -90 -84 -108 -146 -23 -74 -22 -257 1 -320 44 -120
105 -164 226 -165 84 0 134 22 160 70 16 30 30 17 30 -27 l0 -28 150 0 c93 0
150 4 150 10 0 6 -13 10 -28 10 l-29 0 -6 332 c-4 182 -7 403 -7 490 l0 158
-165 0 c-103 0 -165 -4 -165 -10z m43 -400 c39 -31 47 -77 47 -265 0 -93 -5
-187 -10 -207 -22 -77 -109 -104 -140 -43 -12 24 -15 72 -15 235 0 218 4 249
35 280 25 25 51 25 83 0z"/>
<path d="M4370 7041 c0 -6 17 -11 38 -13 l37 -3 5 -355 c6 -398 5 -392 80
-474 66 -72 125 -90 290 -90 120 -1 141 2 186 22 60 27 106 71 131 127 16 35
19 82 23 405 l5 365 38 3 c20 2 37 7 37 13 0 5 -44 9 -100 9 -60 0 -100 -4
-100 -10 0 -5 20 -10 45 -10 l46 0 -3 -357 -3 -358 -28 -58 c-40 -80 -94 -112
-192 -111 -101 0 -153 33 -179 113 -12 37 -16 119 -18 406 l-3 360 43 3 c23 2
42 7 42 13 0 5 -85 9 -210 9 -124 0 -210 -4 -210 -9z"/>
<path d="M2430 6893 c-28 -10 -50 -36 -50 -60 0 -28 15 -30 29 -4 24 45 83 29
143 -37 72 -80 97 -161 99 -321 1 -81 2 -83 11 -41 15 71 4 216 -22 283 -37
99 -100 165 -170 180 -14 3 -32 3 -40 0z"/>
<path d="M3114 6893 c-35 -7 -103 -72 -129 -124 -38 -74 -55 -154 -54 -249 2
-132 16 -165 18 -40 1 115 15 179 54 255 55 108 154 157 188 93 15 -27 34 -8
25 25 -5 22 -53 51 -75 46 -3 -1 -16 -4 -27 -6z"/>
<path d="M3110 6805 c-79 -42 -140 -202 -140 -368 0 -118 8 -123 101 -77 69
36 155 112 202 180 58 84 65 185 14 192 -15 2 -23 11 -25 28 -6 49 -9 52 -43
35 -27 -14 -32 -14 -42 -2 -18 22 -40 26 -67 12z m50 -207 c-1 -64 -62 -167
-121 -202 l-32 -19 7 49 c10 68 40 126 87 168 48 44 59 45 59 4z"/>
<path d="M3073 6500 c-12 -22 -17 -40 -12 -40 5 0 18 18 29 40 27 52 12 52
-17 0z"/>
<path d="M2418 6794 c-12 -12 -20 -14 -36 -5 -33 17 -42 13 -42 -20 0 -24 -6
-32 -30 -41 -37 -12 -46 -43 -30 -95 37 -114 132 -215 265 -282 54 -28 60 -28
72 -13 17 24 16 172 -2 251 -19 80 -69 176 -106 202 -33 23 -69 25 -91 3z m81
-199 c42 -38 75 -104 86 -173 l7 -44 -30 16 c-62 32 -122 135 -122 208 0 37
12 35 59 -7z"/>
<path d="M2490 6534 c0 -12 42 -75 47 -70 6 5 -24 63 -37 71 -5 3 -10 3 -10
-1z"/>
<path d="M2235 6776 c-31 -31 -42 -102 -25 -162 27 -95 131 -203 250 -258 72
-34 100 -33 35 1 -155 80 -255 202 -255 310 0 53 21 93 49 93 25 0 33 11 20
27 -17 20 -47 16 -74 -11z"/>
<path d="M3292 6788 c-18 -18 -14 -28 11 -28 37 0 57 -30 57 -86 0 -109 -99
-234 -248 -312 -126 -66 -107 -64 51 7 125 57 237 207 237 319 0 76 -69 139
-108 100z"/>
<path d="M6854 6760 c-108 -16 -189 -73 -235 -166 -21 -43 -24 -62 -23 -164 0
-130 11 -164 71 -231 66 -73 171 -106 300 -95 206 17 297 122 297 341 -1 50
-7 108 -14 130 -34 105 -113 167 -236 185 -77 11 -87 11 -160 0z m130 -53 c20
-27 21 -40 21 -275 0 -265 -3 -284 -51 -302 -37 -14 -72 4 -91 47 -14 31 -17
74 -17 233 -1 218 6 282 35 311 29 29 76 22 103 -14z"/>
<path d="M5685 6746 c-31 -14 -64 -46 -83 -81 -10 -17 -11 -11 -12 33 l0 52
-160 0 c-100 0 -160 -4 -160 -10 0 -5 16 -10 35 -10 l35 0 0 -295 0 -295 -35
0 c-24 0 -35 -5 -35 -15 0 -13 27 -15 185 -15 158 0 185 2 185 15 0 9 -9 15
-25 15 l-25 0 0 218 0 218 28 55 c41 82 108 95 123 23 4 -16 7 -138 8 -271 l1
-243 -30 0 c-20 0 -30 -5 -30 -15 0 -13 28 -15 190 -15 162 0 190 2 190 15 0
11 -11 15 -40 15 l-40 0 0 243 c0 235 -1 245 -23 287 -33 63 -88 90 -181 90
-39 -1 -84 -7 -101 -14z"/>
<path d="M2685 6665 c39 -97 40 -165 5 -258 -16 -41 -16 -46 -3 -35 64 52 70
214 12 286 -15 19 -20 21 -14 7z"/>
<path d="M2902 6667 c-56 -67 -56 -234 0 -283 21 -19 21 -19 13 1 -40 102 -43
154 -15 235 20 58 20 69 2 47z"/>
<path d="M2027 6618 c47 -49 63 -77 63 -109 0 -19 -7 -15 -54 29 -39 37 -64
52 -92 57 -22 3 -53 8 -70 11 -18 2 -37 11 -44 19 -22 27 -31 16 -16 -20 l15
-35 -34 0 c-41 0 -54 -15 -21 -24 14 -3 45 -30 71 -60 36 -43 58 -59 98 -72
77 -25 93 -34 76 -45 -18 -12 -96 -11 -137 0 -39 12 -41 3 -4 -31 60 -56 85
-63 255 -66 189 -3 211 -11 284 -108 l23 -29 -19 47 c-11 25 -17 49 -14 52 4
3 20 6 37 6 17 0 38 5 46 10 11 7 4 10 -28 10 -50 0 -107 22 -140 53 -13 12
-46 66 -73 120 -27 53 -66 116 -87 139 -37 41 -120 88 -157 88 -16 0 -12 -8
22 -42z m86 -203 c20 -14 37 -28 37 -30 0 -8 -56 16 -80 35 -38 30 -2 25 43
-5z"/>
<path d="M3523 6639 c-60 -29 -116 -95 -164 -191 -72 -145 -102 -172 -207
-187 l-57 -8 53 -8 c28 -4 52 -9 52 -10 0 -2 -9 -24 -20 -49 -10 -25 -18 -46
-16 -46 2 0 16 18 31 41 16 22 49 52 74 67 44 26 51 27 172 24 70 -1 146 2
169 7 47 10 112 52 134 86 l15 22 -50 -14 c-52 -15 -145 -10 -134 7 3 5 35 18
71 30 57 19 70 29 101 71 19 28 49 57 67 67 l31 17 -37 3 c-42 4 -44 6 -23 42
21 37 18 43 -12 20 -16 -11 -55 -23 -90 -28 -57 -8 -67 -13 -120 -63 -31 -29
-58 -48 -60 -42 -6 17 35 94 70 131 27 28 28 32 11 32 -10 0 -38 -9 -61 -21z
m32 -199 c-6 -10 -78 -50 -90 -50 -15 0 9 22 43 40 42 22 56 25 47 10z"/>
<path d="M3301 6434 c-2 -21 -77 -87 -126 -110 -28 -14 -69 -24 -93 -24 -26 0
-41 -4 -37 -10 13 -21 101 -11 156 18 56 29 116 99 106 123 -3 8 -6 9 -6 3z"/>
<path d="M2290 6418 c0 -25 62 -89 111 -113 32 -17 65 -25 99 -25 61 0 59 15
-3 22 -61 7 -115 36 -164 86 -24 24 -43 38 -43 30z"/>
<path d="M2785 6400 c-9 -15 -1 -23 21 -18 15 3 16 4 1 16 -11 9 -17 10 -22 2z"/>
<path d="M2660 6329 c-14 -11 -44 -29 -67 -39 -43 -20 -62 -52 -49 -86 6 -15
8 -15 27 2 11 10 37 19 60 20 34 1 44 7 60 33 10 17 30 37 44 43 30 13 32 24
6 38 -29 15 -53 12 -81 -11z"/>
<path d="M2858 6339 c-24 -13 -23 -26 2 -34 11 -4 31 -22 44 -42 21 -30 31
-36 65 -37 23 -1 49 -10 60 -20 19 -17 21 -17 27 -2 12 32 -6 67 -44 84 -20 9
-51 27 -69 40 -34 24 -58 27 -85 11z"/>
<path d="M2713 6245 c-20 -20 -49 -37 -69 -41 -40 -7 -89 -58 -99 -103 -4 -17
-1 -47 5 -67 10 -29 10 -45 0 -74 -23 -69 14 -142 82 -161 24 -7 60 -28 81
-46 32 -28 44 -33 90 -33 48 0 57 4 87 35 19 19 43 35 53 35 38 0 85 39 103
86 14 37 15 51 5 84 -9 29 -9 49 1 83 10 39 9 51 -7 86 -19 44 -43 64 -90 75
-16 4 -46 23 -67 42 -33 29 -45 34 -89 34 -45 0 -55 -4 -86 -35z m108 -80 c6
-41 17 -80 24 -85 9 -8 29 -4 70 15 101 44 115 28 30 -35 -34 -25 -55 -48 -55
-60 0 -12 22 -36 55 -61 30 -23 55 -45 55 -50 0 -15 -39 -10 -81 12 -67 34
-82 25 -94 -53 -12 -84 -31 -107 -40 -52 -21 124 -19 119 -50 118 -17 -1 -54
-11 -82 -23 -73 -29 -72 -5 2 49 34 25 55 48 55 60 0 12 -21 35 -55 60 -77 57
-69 83 13 41 80 -41 112 -23 112 62 0 34 14 77 25 77 2 0 9 -34 16 -75z"/>
<path d="M2222 6225 c70 -19 133 -60 173 -112 39 -51 47 -39 12 19 -40 67
-115 109 -189 107 l-43 -1 47 -13z"/>
<path d="M3282 6214 c-54 -27 -112 -95 -112 -131 1 -16 2 -16 12 2 35 64 112
119 196 139 l57 14 -51 1 c-35 1 -65 -7 -102 -25z"/>
<path d="M1957 6205 c-50 -17 -85 -51 -96 -89 -10 -38 6 -76 31 -76 21 0 22 4
8 30 -37 70 110 139 239 111 54 -11 153 -55 211 -92 l35 -23 -29 31 c-84 92
-289 148 -399 108z"/>
<path d="M2478 6213 c-12 -3 -18 -14 -17 -31 0 -16 3 -21 6 -12 3 8 12 23 21
33 8 9 13 16 11 16 -2 -1 -12 -3 -21 -6z"/>
<path d="M3117 6194 c19 -29 23 -30 23 -5 0 10 -9 21 -20 24 -18 5 -18 4 -3
-19z"/>
<path d="M3415 6199 c-65 -23 -175 -91 -215 -134 -18 -20 -4 -14 53 23 97 63
172 92 259 99 127 11 219 -50 183 -121 -12 -23 -12 -26 4 -26 44 0 56 68 19
115 -51 65 -184 85 -303 44z"/>
<path d="M1994 6141 c-33 -14 -63 -58 -57 -82 4 -15 -2 -27 -22 -43 l-28 -23
31 -18 c26 -16 29 -22 20 -38 -8 -15 -6 -25 9 -46 24 -32 49 -39 140 -40 91
-1 180 27 265 83 86 56 87 74 8 125 -33 22 -89 49 -123 61 -68 24 -209 36
-243 21z m336 -122 l45 -21 -45 -21 c-57 -27 -160 -28 -208 -3 -40 21 -37 37
9 53 55 19 148 15 199 -8z"/>
<path d="M2208 5993 c12 -2 32 -2 45 0 12 2 2 4 -23 4 -25 0 -35 -2 -22 -4z"/>
<path d="M3390 6131 c-65 -21 -122 -49 -170 -86 -58 -43 -56 -55 18 -102 89
-58 163 -85 253 -91 119 -7 175 19 171 80 -2 22 4 35 24 50 l26 21 -31 19
c-26 17 -29 23 -21 39 15 27 -4 57 -45 75 -47 19 -158 17 -225 -5z m99 -111
c29 -15 26 -27 -10 -46 -59 -30 -239 -12 -239 25 0 42 182 58 249 21z"/>
<path d="M2466 6104 c-12 -12 -16 -37 -16 -109 0 -86 2 -95 22 -109 35 -25 43
-19 43 28 0 27 6 51 17 63 16 18 16 20 -2 48 -11 17 -20 45 -20 63 0 36 -18
42 -44 16z"/>
<path d="M3088 6090 c3 -18 -3 -41 -17 -63 -19 -32 -19 -34 -3 -51 11 -11 17
-32 17 -61 0 -40 2 -44 20 -39 41 13 45 24 45 120 0 97 -11 124 -49 124 -14 0
-17 -6 -13 -30z"/>
<path d="M1877 5949 c-22 -13 -22 -62 -1 -99 31 -52 68 -65 184 -65 101 0 108
1 180 38 41 20 95 55 120 77 l45 41 -50 -30 c-118 -70 -185 -95 -270 -99 -69
-3 -86 0 -125 20 -52 26 -77 67 -60 97 12 24 1 33 -23 20z"/>
<path d="M3695 5944 c18 -45 17 -54 -13 -82 -80 -75 -239 -66 -382 21 -30 18
-68 41 -85 51 -24 15 -22 11 12 -21 117 -110 319 -164 428 -114 68 31 103 88
81 132 -14 29 -53 41 -41 13z"/>
<path d="M3170 5914 c20 -52 49 -91 87 -117 50 -34 114 -52 150 -42 25 7 21 9
-42 25 -66 17 -74 22 -138 90 -50 54 -65 65 -57 44z"/>
<path d="M2421 5922 c0 -7 -20 -33 -43 -59 -48 -52 -125 -92 -178 -94 -27 0
-30 -2 -16 -8 31 -12 110 5 155 33 47 30 95 96 88 123 -3 10 -5 12 -6 5z"/>
<path d="M2395 5807 c-55 -74 -78 -82 -255 -82 -173 0 -203 -9 -265 -75 l-30
-33 25 6 c66 16 107 18 135 7 34 -14 35 -13 -67 -50 -46 -17 -64 -30 -93 -71
-19 -27 -48 -55 -63 -61 l-27 -12 38 -4 c41 -4 42 -6 22 -42 -22 -38 -18 -43
14 -21 16 12 54 23 87 27 52 7 63 13 117 61 32 30 61 52 64 50 12 -12 -23 -83
-60 -124 -45 -49 -33 -57 38 -24 63 29 112 85 162 184 75 151 95 170 203 193
l55 11 -47 8 -47 7 16 39 c8 22 14 41 12 43 -2 2 -18 -15 -34 -37z m-245 -202
c0 -9 -91 -57 -97 -51 -8 7 -7 9 37 35 33 19 60 27 60 16z"/>
<path d="M3170 5847 c0 -4 7 -24 15 -44 19 -45 20 -43 -12 -44 -16 0 -37 -4
-48 -9 -16 -7 -12 -9 19 -9 46 -1 113 -31 144 -64 11 -12 44 -67 72 -122 71
-139 125 -190 220 -210 l35 -7 -27 21 c-31 25 -66 78 -78 121 l-9 30 27 -19
c15 -10 36 -29 47 -41 28 -31 69 -50 107 -50 19 0 51 -9 73 -20 22 -11 40 -20
42 -20 1 0 -5 16 -13 35 l-14 35 35 0 c42 0 45 10 8 28 -16 7 -45 35 -65 62
-31 41 -47 52 -90 65 -63 18 -85 31 -74 42 10 11 102 10 146 -1 l35 -8 -30 32
c-58 63 -102 75 -270 75 -141 0 -153 2 -193 25 -24 14 -57 42 -73 64 -16 22
-29 37 -29 33z m353 -263 c21 -14 36 -28 34 -31 -7 -7 -73 26 -88 43 -20 24
12 17 54 -12z"/>
<path d="M3123 5813 c-14 -30 -13 -35 6 -24 7 5 11 18 9 30 -3 19 -4 19 -15
-6z"/>
<path d="M2460 5812 c0 -14 6 -22 16 -22 14 0 15 3 3 18 -7 9 -15 19 -16 21
-2 2 -3 -5 -3 -17z"/>
<path d="M2544 5796 c-13 -33 6 -65 49 -87 23 -12 53 -30 66 -40 29 -23 74
-25 91 -4 7 9 11 16 9 18 -2 1 -13 7 -24 13 -11 6 -29 25 -40 42 -16 25 -27
31 -56 32 -21 0 -47 9 -63 21 -23 18 -27 18 -32 5z"/>
<path d="M3021 5789 c-14 -11 -39 -19 -61 -19 -32 0 -39 -4 -49 -29 -7 -15
-24 -34 -39 -42 -15 -7 -29 -15 -31 -16 -2 -1 2 -9 9 -18 21 -25 61 -16 135
29 56 34 71 49 73 71 5 38 -9 47 -37 24z"/>
<path d="M2425 5704 c-44 -16 -99 -64 -121 -106 -22 -42 -17 -45 11 -8 48 65
135 110 215 110 26 0 31 3 20 10 -21 14 -78 11 -125 -6z"/>
<path d="M3046 5711 c-3 -4 19 -11 48 -14 69 -7 122 -34 174 -91 42 -46 57
-43 24 5 -24 36 -73 76 -116 94 -38 16 -122 20 -130 6z"/>
<path d="M2460 5642 c-101 -51 -180 -126 -225 -214 -38 -77 -43 -119 -21 -173
17 -40 59 -64 84 -49 24 16 28 37 5 30 -35 -11 -63 28 -63 87 0 110 89 224
241 310 99 56 86 62 -21 9z"/>
<path d="M3114 5638 c147 -80 248 -205 249 -308 1 -62 -16 -90 -54 -90 -27 0
-29 -2 -19 -20 15 -28 52 -25 81 6 35 37 34 139 0 207 -37 72 -130 159 -214
200 -105 52 -135 55 -43 5z"/>
<path d="M2525 5637 c-89 -47 -197 -158 -223 -230 -33 -87 -28 -131 13 -138
13 -3 21 -14 23 -29 6 -49 9 -52 42 -35 28 14 31 14 50 -5 25 -25 28 -25 64
-1 37 25 79 87 107 159 28 72 40 289 18 303 -21 13 -29 11 -94 -24z m51 -110
c-19 -64 -61 -125 -105 -150 l-31 -18 0 38 c1 67 49 153 113 200 31 24 32 24
35 3 2 -11 -4 -44 -12 -73z"/>
<path d="M2511 5500 c-12 -22 -19 -40 -14 -40 10 0 48 68 41 75 -2 3 -15 -13
-27 -35z"/>
<path d="M2980 5651 c-15 -29 -12 -168 5 -236 41 -162 133 -267 186 -214 18
18 25 19 46 10 36 -17 41 -14 45 21 2 25 9 34 28 38 89 21 2 211 -150 328 -29
23 -125 72 -139 72 -6 0 -15 -9 -21 -19z m89 -67 c48 -40 82 -105 88 -170 l6
-58 -31 22 c-64 46 -103 109 -117 191 -8 50 7 54 54 15z"/>
<path d="M3060 5535 c0 -13 35 -75 42 -75 5 0 -1 18 -12 40 -18 35 -30 49 -30
35z"/>
<path d="M2691 5596 c31 -70 34 -139 11 -213 -22 -69 -11 -74 19 -9 36 80 21
204 -32 252 -19 17 -19 15 2 -30z"/>
<path d="M2777 5609 c22 -23 23 -23 40 -5 17 18 17 19 0 12 -10 -3 -28 -1 -40
5 l-22 11 22 -23z"/>
<path d="M2890 5599 c-29 -47 -33 -71 -27 -145 3 -42 12 -74 27 -96 12 -18 19
-24 16 -14 -29 89 -29 155 0 238 18 52 11 60 -16 17z"/>
<path d="M2936 5537 c-19 -204 50 -377 170 -423 42 -16 48 -16 80 -1 25 12 34
23 34 41 0 32 -17 42 -25 16 -17 -54 -106 -25 -167 56 -53 69 -69 125 -77 272
l-7 127 -8 -88z"/>
<path d="M2745 5585 c4 -11 14 -36 21 -55 29 -76 12 -132 -89 -294 -49 -80
-64 -149 -47 -223 l12 -57 24 63 c12 35 35 76 49 90 l27 26 -6 -35 c-20 -113
-19 -155 4 -200 16 -31 21 -53 16 -79 l-5 -36 29 35 c16 19 30 31 30 25 0 -5
9 -21 19 -34 l19 -24 0 40 c0 23 10 64 22 91 21 49 21 52 6 128 -9 42 -14 79
-12 81 2 2 17 -12 33 -32 29 -35 53 -94 53 -131 0 -13 3 -15 11 -7 7 7 14 46
17 87 4 71 2 79 -31 148 -20 40 -54 102 -76 137 -23 35 -44 80 -47 99 -6 31 7
96 31 157 5 11 -6 3 -23 -18 l-30 -37 -32 37 c-18 21 -29 29 -25 18z m65 -422
c0 -48 -3 -64 -10 -53 -16 24 -11 120 6 120 2 0 4 -30 4 -67z"/>
<path d="M2648 5480 c-7 -147 -30 -212 -102 -287 -61 -62 -101 -71 -134 -28
-13 16 -23 22 -27 15 -13 -21 5 -57 34 -69 46 -19 101 1 151 55 68 73 100 172
99 299 -2 133 -15 143 -21 15z"/>
<path d="M4530 5490 c0 -5 13 -10 29 -10 17 0 32 -4 35 -9 4 -5 -15 -85 -40
-178 -33 -122 -44 -180 -41 -211 8 -76 72 -122 167 -122 65 0 111 20 143 61
33 44 40 62 92 254 47 171 67 205 121 205 13 0 24 5 24 10 0 6 -40 10 -100 10
-102 0 -125 -9 -67 -25 21 -7 33 -17 35 -32 5 -34 -86 -354 -113 -394 -41 -63
-130 -87 -195 -54 -36 19 -50 43 -50 87 0 39 87 367 102 385 6 7 26 13 44 13
19 0 34 5 34 10 0 6 -43 10 -110 10 -67 0 -110 -4 -110 -10z"/>
<path d="M5634 5474 c-45 -29 -91 -94 -100 -142 -6 -29 -10 -32 -45 -32 -51 0
-60 -18 -11 -22 l39 -3 -63 -230 c-35 -126 -63 -236 -64 -243 0 -8 9 -12 22
-10 19 3 28 29 87 246 l66 242 42 0 c24 0 43 5 43 10 0 6 -18 10 -39 10 l-39
0 10 38 c17 63 47 112 81 132 52 32 107 21 77 -15 -7 -8 -9 -22 -6 -31 3 -9
-15 -91 -40 -183 -44 -159 -56 -234 -40 -259 11 -18 61 -14 78 6 21 23 61 103
54 109 -2 3 -16 -18 -31 -46 -27 -54 -49 -71 -67 -53 -8 8 60 289 118 485 5
15 -3 17 -63 17 -57 0 -76 -4 -109 -26z"/>
<path d="M6240 5490 c0 -5 18 -10 41 -10 34 0 40 -3 35 -17 -65 -225 -107
-401 -104 -441 3 -43 5 -47 31 -50 16 -2 35 2 43 9 19 15 67 109 61 116 -3 2
-14 -15 -25 -39 -22 -50 -45 -73 -67 -64 -11 4 -14 13 -9 33 6 27 110 420 120
456 5 15 -3 17 -60 17 -37 0 -66 -4 -66 -10z"/>
<path d="M6640 5490 c0 -5 18 -10 41 -10 34 0 39 -3 35 -17 -3 -10 -17 -62
-32 -116 l-27 -98 -26 32 c-24 28 -31 31 -62 25 -77 -14 -154 -134 -154 -237
0 -71 21 -99 75 -99 31 0 44 7 74 40 20 22 38 40 40 40 3 0 6 -17 8 -37 3 -33
7 -38 31 -41 16 -2 35 2 43 9 19 15 67 109 61 116 -3 2 -14 -15 -25 -39 -22
-50 -45 -73 -67 -64 -11 4 -14 13 -9 33 5 24 106 406 120 456 5 15 -3 17 -60
17 -37 0 -66 -4 -66 -10z m-20 -215 c29 -35 4 -153 -50 -238 -49 -78 -110 -73
-110 9 0 68 57 210 95 236 17 13 52 9 65 -7z"/>
<path d="M7096 5404 c-15 -53 -26 -98 -23 -100 2 -2 18 25 36 60 36 73 73 106
131 113 34 5 40 3 40 -13 -1 -38 -120 -458 -132 -466 -7 -4 -30 -8 -50 -8 -21
0 -38 -4 -38 -10 0 -6 48 -10 125 -10 77 0 125 4 125 10 0 6 -16 10 -35 10
-22 0 -38 6 -41 15 -6 14 99 423 117 458 14 24 63 22 95 -6 25 -22 27 -29 26
-92 -1 -37 1 -65 5 -62 3 4 16 49 28 102 l23 95 -202 0 -202 0 -28 -96z"/>
<path d="M7603 5490 c20 -4 39 -9 41 -11 2 -2 -14 -67 -36 -144 -21 -77 -51
-188 -67 -247 l-29 -108 22 0 c18 0 25 9 35 43 21 69 101 215 133 242 68 58
82 21 34 -93 -38 -90 -47 -167 -24 -190 22 -22 56 -13 84 21 31 39 57 97 44
97 -5 0 -12 -10 -15 -22 -12 -38 -55 -88 -76 -88 -27 0 -24 24 16 117 37 85
47 167 23 191 -34 34 -104 -12 -148 -98 -11 -21 -24 -41 -28 -44 -7 -4 53 230
82 322 7 21 6 22 -61 21 -58 -1 -62 -2 -30 -9z"/>
<path d="M8501 5418 c-13 -46 -26 -88 -28 -95 -3 -7 -1 -13 3 -12 5 0 22 27
37 59 32 67 70 100 127 107 35 5 40 3 40 -14 0 -16 -59 -244 -106 -410 l-15
-53 -44 0 c-24 0 -47 -4 -50 -10 -4 -6 38 -10 119 -10 77 0 126 4 126 10 0 6
-18 10 -40 10 -24 0 -40 5 -40 12 0 16 108 418 120 446 7 16 18 22 42 22 61
-1 94 -52 83 -127 -11 -74 9 -46 29 39 10 45 20 87 23 95 4 11 -33 13 -199 13
l-203 0 -24 -82z"/>
<path d="M9983 5493 c27 -3 37 -9 37 -21 0 -14 -102 -400 -125 -471 -5 -17 -2
-21 17 -21 20 0 27 10 47 68 47 135 121 242 167 242 32 0 31 -15 -11 -117 -57
-136 -40 -233 33 -193 26 15 89 116 79 127 -3 3 -17 -17 -31 -44 -28 -57 -50
-78 -71 -69 -22 8 -19 29 20 119 37 84 46 162 23 185 -37 37 -94 -2 -153 -103
-15 -25 -28 -45 -30 -45 -3 0 8 41 69 263 l24 87 -66 -2 c-42 -1 -53 -3 -29
-5z"/>
<path d="M9787 5473 c-2 -5 -7 -21 -11 -38 -26 -111 -37 -135 -62 -135 -13 0
-24 -4 -24 -10 0 -5 10 -10 21 -10 17 0 20 -4 15 -22 -57 -221 -60 -236 -42
-262 20 -31 65 -35 89 -8 19 21 52 110 44 119 -3 3 -11 -13 -18 -36 -19 -65
-70 -105 -85 -67 -3 7 7 58 21 112 46 173 41 164 85 164 21 0 42 5 45 10 4 6
-10 10 -34 10 -23 0 -41 5 -41 10 0 6 9 43 20 82 11 40 20 76 20 80 0 10 -37
10 -43 1z"/>
<path d="M5092 5295 c-23 -17 -77 -113 -68 -122 3 -3 13 13 22 36 19 47 62 87
77 72 7 -7 -2 -57 -26 -150 -20 -77 -37 -144 -37 -150 0 -6 9 -11 19 -11 15 0
24 13 37 53 42 128 133 267 175 267 29 0 24 -37 -16 -134 -50 -122 -45 -186
15 -186 31 0 69 39 90 94 16 42 4 44 -14 2 -18 -42 -62 -90 -76 -81 -18 11
-11 49 25 135 19 47 35 99 35 115 0 38 -25 75 -50 75 -29 0 -78 -47 -112 -107
-17 -30 -32 -53 -34 -51 -1 2 2 24 7 50 17 80 -19 128 -69 93z"/>
<path d="M5984 5296 c-16 -7 -46 -32 -66 -55 -55 -65 -72 -147 -44 -216 17
-40 42 -55 94 -55 84 0 161 100 162 208 0 105 -61 155 -146 118z m86 -21 c19
-23 7 -140 -19 -200 -41 -93 -93 -122 -127 -70 -30 45 -1 182 52 252 28 36 72
45 94 18z"/>
<path d="M8022 5293 c-88 -43 -140 -190 -97 -273 41 -79 144 -64 198 29 10 17
14 31 9 31 -5 0 -15 -12 -23 -26 -19 -37 -66 -74 -93 -74 -36 0 -56 30 -56 86
0 56 12 74 49 74 65 0 141 64 141 118 0 48 -66 66 -128 35z m82 -9 c19 -18 19
-22 5 -63 -12 -34 -44 -55 -101 -66 l-37 -7 9 31 c13 46 46 96 72 109 31 15
34 14 52 -4z"/>
<path d="M8974 5278 c-27 -34 -59 -97 -51 -104 2 -3 16 20 31 50 27 54 51 75
69 57 6 -6 -4 -62 -27 -149 -20 -78 -36 -143 -36 -146 0 -15 41 -4 46 12 3 9
21 58 40 108 54 143 126 241 108 149 -5 -27 -3 -36 11 -41 26 -11 59 28 51 61
-15 60 -75 45 -117 -30 -34 -60 -45 -69 -35 -29 4 14 2 41 -4 60 -15 45 -48
46 -86 2z"/>
<path d="M9294 5278 c-29 -35 -59 -97 -50 -105 3 -3 12 12 21 33 28 67 77 105
91 70 3 -8 -10 -52 -29 -97 -42 -103 -49 -139 -36 -179 9 -23 17 -30 38 -30
38 0 65 23 107 90 20 33 38 60 39 60 1 0 0 -22 -3 -49 -7 -75 3 -101 37 -101
15 0 35 8 43 18 21 23 58 98 57 114 0 7 -9 -7 -20 -32 -23 -52 -46 -80 -66
-80 -26 0 -17 57 42 263 14 46 14 47 -9 47 -20 0 -27 -9 -41 -52 -22 -69 -89
-195 -123 -230 -31 -33 -72 -38 -72 -8 0 11 16 58 35 104 36 86 43 142 25 177
-16 29 -54 24 -86 -13z"/>
</g>
</svg>
